<?xml version="1.0" encoding="UTF-8" standalone="no"?>
<!-- Created with Inkscape (http://www.inkscape.org/) -->

<svg
   xmlns:dc="http://purl.org/dc/elements/1.1/"
   xmlns:cc="http://creativecommons.org/ns#"
   xmlns:rdf="http://www.w3.org/1999/02/22-rdf-syntax-ns#"
   xmlns:svg="http://www.w3.org/2000/svg"
   xmlns="http://www.w3.org/2000/svg"
   xmlns:sodipodi="http://sodipodi.sourceforge.net/DTD/sodipodi-0.dtd"
   xmlns:inkscape="http://www.inkscape.org/namespaces/inkscape"
   width="13.34375"
   height="15.856737"
   id="svg4265"
   version="1.1"
   inkscape:version="0.48.4 r9939"
   sodipodi:docname="New document 6">
  <defs
     id="defs4267" />
  <sodipodi:namedview
     id="base"
     pagecolor="#ffffff"
     bordercolor="#666666"
     borderopacity="1.0"
     inkscape:pageopacity="0.0"
     inkscape:pageshadow="2"
     inkscape:zoom="5.6"
     inkscape:cx="11.25754"
     inkscape:cy="4.7886712"
     inkscape:document-units="px"
     inkscape:current-layer="layer1"
     showgrid="false"
     fit-margin-top="0"
     fit-margin-left="0"
     fit-margin-right="0"
     fit-margin-bottom="0"
     inkscape:window-width="467"
     inkscape:window-height="443"
     inkscape:window-x="110"
     inkscape:window-y="110"
     inkscape:window-maximized="0" />
  <metadata
     id="metadata4270">
    <rdf:RDF>
      <cc:Work
         rdf:about="">
        <dc:format>image/svg+xml</dc:format>
        <dc:type
           rdf:resource="http://purl.org/dc/dcmitype/StillImage" />
        <dc:title></dc:title>
      </cc:Work>
    </rdf:RDF>
  </metadata>
  <g
     inkscape:label="Layer 1"
     inkscape:groupmode="layer"
     id="layer1"
     transform="translate(-456.18527,-475.86238)">
    <path
       inkscape:connector-curvature="0"
       style="fill:#a4c639;fill-opacity:1"
       d="m 460.09152,475.87537 c -0.07,0.0388 -0.1014,0.14872 -0.0625,0.21875 l 0.6875,1.25 c -1.32061,0.692 -2.21875,1.99384 -2.21875,3.5 l 8.71875,0 c 0,-1.49689 -0.90234,-2.80466 -2.21875,-3.5 l 0.6875,-1.25 c 0.0388,-0.07 0.008,-0.17995 -0.0625,-0.21875 -0.035,-0.0194 -0.0611,-0.0151 -0.0937,0 -0.0327,0.0151 -0.0743,0.0587 -0.0937,0.0937 l -0.6875,1.25 c -0.58001,-0.26207 -1.21844,-0.40625 -1.90625,-0.40625 -0.67777,0 -1.30496,0.15132 -1.875,0.40625 l -0.6875,-1.25 c -0.0388,-0.07 -0.11745,-0.13263 -0.1875,-0.0937 z m 0.75,2.625 c 0.19922,0 0.34375,0.17578 0.34375,0.375 0,0.19922 -0.14453,0.34375 -0.34375,0.34375 -0.19922,0 -0.375,-0.14453 -0.375,-0.34375 0,-0.19922 0.17578,-0.375 0.375,-0.375 z m 4,0 c 0.19922,0 0.375,0.17578 0.375,0.375 0,0.19922 -0.17578,0.34375 -0.375,0.34375 -0.19922,0 -0.375,-0.14453 -0.375,-0.34375 0,-0.19922 0.17578,-0.375 0.375,-0.375 z m -7.6875,2.53125 c -0.54489,0 -0.96875,0.42386 -0.96875,0.96875 l 0,4.0625 c 0,0.54489 0.42386,1 0.96875,1 0.54489,0 0.96875,-0.45511 0.96875,-1 l 0,-4.0625 c 0,-0.54489 -0.42386,-0.96875 -0.96875,-0.96875 z m 11.40625,0 c -0.54489,0 -0.96875,0.42386 -0.96875,0.96875 l 0,4.0625 c 0,0.54489 0.42386,1 0.96875,1 0.54489,0 0.96875,-0.45511 0.96875,-1 l 0,-4.0625 c 0,-0.54489 -0.42386,-0.96875 -0.96875,-0.96875 z m -10.0625,0.15625 0,6.3125 c 0,0.58441 0.47809,1.0625 1.0625,1.0625 l 0.59375,0 0,2.03125 c 0,0.54489 0.42386,1 0.96875,1 0.54489,0 0.96875,-0.45511 0.96875,-1 l 0,-2.03125 1.4375,0 0,2.15625 c 0,0.54489 0.42386,1 0.96875,1 0.54489,0 0.96875,-0.45511 0.96875,-1 l 0,-2.15625 0.6875,0 c 0.58441,0 1.0625,-0.47809 1.0625,-1.0625 l 0,-6.3125 -8.71875,0 z"
       id="ellipse4088" />
  </g>
</svg>
